<?xml version="1.0" encoding="UTF-8"?>
<svg id="Layer_1" data-name="Layer 1" xmlns="http://www.w3.org/2000/svg" viewBox="0 0 1080 1080">
  <defs>
    <style>
      .cls-1 {
        fill: #d2202a;
      }
    </style>
  </defs>
  <path class="cls-1" d="M417.81,551.03c7.74-7.45,25.47-2,26.01,9.77-6.88,37.88-10.27,77.31-18.22,114.91-5.01,23.74-10,42.6-32.46,55.34-32.84,18.62-77.27,8.03-93.3-27.33-11.27-24.87,1.09-76.99,5.76-104.63,8.98-53.06,18.23-110.38,29.83-162.69,16.99-76.67,102.37-96.57,145.28-29.91,41.47,95.48,76.35,194.24,119.3,289.01,25.35,33.5,77.61,20.29,85.42-20.17l41.96-239.38c-3.31-37.8-55.92-43.85-66.14-6.94-11.11,40.13-12.61,87.06-23.44,127.82-4.96,13.55-29.2,9.36-28.93-5.58,9.12-42.96,10.01-91.84,23.02-133.62,15.85-50.86,83.12-61,114.34-18.58,13.91,18.9,12.24,36.83,9.55,58.91-4.73,38.75-13.27,79.71-20.26,118.32-6.27,34.65-11.78,80.22-21.36,112.98-12.47,42.63-55.38,65.48-98.09,53.64-44.89-12.45-55.87-64.49-71.19-102.29-30.28-74.74-59.82-150.22-92.57-223.71-25.82-33.07-76.96-19.46-85.18,20.55l-41.74,236.52c-.17,28.54,30.95,44.88,54.31,27.8,11.21-8.19,11.55-17.73,14.13-30.3,7.74-37.69,12.24-76.2,20.53-113.81.51-2.05,1.97-5.21,3.43-6.62h.01Z"/>
</svg>